<?xml version="1.0" encoding="utf-8"?>
<!-- Generator: Adobe Illustrator 26.5.0, SVG Export Plug-In . SVG Version: 6.00 Build 0)  -->
<svg version="1.1" xmlns="http://www.w3.org/2000/svg" xmlns:xlink="http://www.w3.org/1999/xlink" x="0px" y="0px"
	 viewBox="0 0 2773.26 1109.75" style="enable-background:new 0 0 2773.26 1109.75;" xml:space="preserve">
<style type="text/css">
	.st0{fill:#403E3D;}
	.st1{fill:#F2B707;}
	.st2{fill:#A62077;}
	.st3{fill:#BBBE36;}
	.st4{fill:#F2F0E9;}
	.st5{fill:#FFFFFF;}
	.st6{display:none;}
	.st7{display:inline;fill:#E6007E;}
</style>
<g id="Wordmark">
	<g>
		<path class="st1" d="M2542.25,584.04c-60.83-91.25-179.55-95.84-275.75-57.18c-91.03,36.58-89.91,152.76-54.66,235.18
			c7.34,17.16,20.43,31.79,28.09,39.66c15.31,15.73,34.2,28.32,56.65,37.76c22.44,9.44,48.56,14.16,78.36,14.16
			c29.36,0,55.39-4.72,78.05-14.16c11.33-4.72,21.74-10.23,31.23-16.52c4.75-3.15,9.26-6.49,13.6-9.94
			C2570.64,764.51,2590.92,657.04,2542.25,584.04z M2462.7,675.28c0,32.78-26.57,59.35-59.35,59.35h-52.77
			c-32.78,0-59.35-26.57-59.35-59.35v-42.06c0-3.11,2.52-5.64,5.64-5.64h160.19c3.11,0,5.64,2.52,5.64,5.64V675.28z"/>
		<path class="st1" d="M2106.44,568.36c-31.78-39.54-75.53-51.41-118.57-57.95c-36.73-5.59-57.54,4.1-83.92,25.42V375.67h-115.76
			v471.65h105.22v-24.74c25.26,17.14,53.69,23.51,83.98,28.12c43.03,6.55,83.46-5.71,117.35-35.26
			c33.89-29.55,59.25-65.29,60.64-110.57C2156.76,659.61,2138.21,607.9,2106.44,568.36z M1976.37,738.14
			c-31.74,0-57.48-25.73-57.48-57.48c0-31.74,25.73-57.48,57.48-57.48c31.74,0,57.48,25.73,57.48,57.48
			C2033.85,712.41,2008.12,738.14,1976.37,738.14z"/>
		<path class="st1" d="M1025.84,514.21L1025.84,514.21l0,162.18c0,21.78-17.66,39.44-39.44,39.44h-23.83
			c-21.78,0-39.44-17.66-39.44-39.44V514.21H811.11v173.16h0.06c0.25,19.9,3.34,40.11,9.38,59.23
			c14.15,44.82,30.49,71.79,66.32,91.88c35.83,20.1,77.96,12.74,118.48-1.42c9.34-3.26,19.97-5.76,31.02-8.14v18.39h105.22v-45.79
			V514.21H1025.84z"/>
		<path class="st1" d="M439.18,513.46v29.69c0,10.49,8.5,18.99,18.99,18.99h101.5c18.15,0,32.87,14.72,32.87,32.87v116.65
			c0,18.15-14.72,32.87-32.87,32.87H420.93c-18.15,0-32.87-14.72-32.87-32.87v-316.2c0-18.15,14.72-32.87,32.87-32.87h138.74
			c18.15,0,32.87,14.72,32.87,32.87v76.41c0,0.32,161.53,0.58,161.53,0.58c0.32,0,0.57-0.26,0.55-0.58
			c-5.38-83.41,6.32-178.86-44.76-225.08c-64.97-58.79-180.17-43.46-265.86-29.62s-156.92,59.85-200.08,136.11
			c-39.2,69.26-47.23,154.46-32.65,244.79c14.59,90.33,19.99,200.76,79,254.16c64.97,58.79,177.97,59.51,263.66,45.67
			c85.69-13.84,136.61-81.86,179.77-158.11c38.67-68.31,39.51-137.88,25.53-226.44c-0.04-0.28-0.28-0.48-0.56-0.48H439.78
			C439.45,512.86,439.18,513.13,439.18,513.46z"/>
		<path class="st1" d="M1741.35,681.78c0-89.28-20.39-104.87-52.86-133.45c-38.96-34.3-59.18-40.94-107.73-40.38
			c-40.09,0.46-74.4,14.76-100.29,42.65c-29.41-26.18-53.66-42.65-102.75-40.51c-26.61,1.16-54.56,13.17-79.5,29.53v-25.96H1193
			v333.66h115.76V696.11c0-28.01,22.71-50.72,50.72-50.72h13.21c28.01,0,50.72,22.71,50.72,50.72v151.21h98.05V696.91
			c0-28.45,23.07-51.52,51.52-51.52h10.89c28.45,0,51.52,23.07,51.52,51.52v150.41h106.01L1741.35,681.78z"/>
	</g>
</g>
<g id="Spacer" class="st6">
</g>
</svg>
